<svg width="706" height="706" viewBox="0 0 706 706" fill="none" xmlns="http://www.w3.org/2000/svg">
<path fill-rule="evenodd" clip-rule="evenodd" d="M58.941 117.706H647.176C649.811 117.706 652.365 118.052 654.795 118.702L430.895 342.601L384.254 389.242C367.025 406.471 339.092 406.471 321.863 389.242L275.222 342.601L51.3227 118.702C53.7525 118.052 56.3063 117.706 58.941 117.706ZM30.5254 139.499C29.8756 141.929 29.5292 144.483 29.5292 147.118V558.882C29.5292 561.517 29.8756 564.071 30.5254 566.501L244.026 353L30.5254 139.499ZM51.3227 587.298C53.7525 587.948 56.3063 588.294 58.9409 588.294H647.176C649.811 588.294 652.365 587.948 654.795 587.298L441.294 373.797L405.052 410.039C376.337 438.754 329.78 438.754 301.065 410.039L264.823 373.797L51.3227 587.298ZM675.592 566.501C676.242 564.071 676.588 561.517 676.588 558.882V147.118C676.588 144.483 676.242 141.929 675.592 139.499L462.091 353L675.592 566.501ZM0.117432 147.118C0.117432 114.63 26.4536 88.2941 58.941 88.2941H647.176C679.664 88.2941 706 114.63 706 147.118V558.882C706 591.37 679.664 617.706 647.176 617.706H58.9409C26.4536 617.706 0.117432 591.37 0.117432 558.882V147.118Z" fill="black"/>
</svg>
