<?xml version="1.0" standalone="no"?>
<!DOCTYPE svg PUBLIC "-//W3C//DTD SVG 20010904//EN"
 "http://www.w3.org/TR/2001/REC-SVG-20010904/DTD/svg10.dtd">
<svg version="1.0" xmlns="http://www.w3.org/2000/svg"
 width="300.000000pt" height="300.000000pt" viewBox="0 0 300.000000 300.000000"
 preserveAspectRatio="xMidYMid meet">
<metadata>
Created by potrace 1.10, written by Peter Selinger 2001-2011
</metadata>
<g transform="translate(0.000000,300.000000) scale(0.100000,-0.100000)"
fill="#000000" stroke="none">
<path d="M813 2496 c-185 -45 -338 -197 -388 -386 -22 -81 -21 -651 0 -735 38
-146 151 -284 285 -348 41 -19 102 -40 134 -46 35 -7 198 -11 391 -11 l330 0
46 -38 c36 -30 307 -266 396 -345 27 -24 67 -25 93 -2 18 16 20 34 22 208 l3
190 52 13 c181 46 330 197 377 380 13 50 16 122 16 373 0 300 -1 313 -24 386
-13 41 -38 97 -56 125 -44 68 -144 160 -212 192 -119 58 -117 58 -793 57 -464
0 -633 -4 -672 -13z m1335 -41 c181 -43 320 -177 367 -356 20 -75 21 -641 1
-714 -43 -162 -165 -290 -328 -344 -106 -35 -108 -41 -108 -241 0 -137 -3
-170 -15 -180 -18 -15 2 -30 -235 175 -102 89 -201 173 -220 187 l-35 26 -365
4 c-345 4 -368 6 -424 26 -137 51 -223 128 -289 260 l-42 85 -3 324 c-2 208 1
343 8 377 37 177 177 321 360 370 82 22 1236 23 1328 1z"/>
<path d="M910 2400 c-83 -8 -133 -25 -195 -65 -86 -56 -147 -134 -179 -231
-15 -45 -16 -93 -14 -380 l3 -329 32 -68 c41 -86 116 -161 209 -207 l69 -35
386 -5 386 -5 87 -75 c188 -162 260 -220 271 -220 6 0 21 10 33 23 20 21 22
34 22 138 0 124 5 139 51 139 48 0 151 38 206 76 71 49 138 139 163 221 18 59
20 92 20 362 0 313 -5 352 -50 440 -33 65 -115 143 -191 180 -52 25 -86 34
-160 41 -107 11 -1050 11 -1149 0z m1286 -73 c74 -34 152 -111 191 -187 l28
-55 0 -340 0 -340 -33 -67 c-60 -123 -176 -202 -314 -215 -34 -3 -63 -12 -70
-21 -9 -10 -15 -64 -18 -153 l-5 -139 -178 155 -179 154 -386 3 -387 3 -58 27
c-75 35 -156 113 -193 185 l-29 58 -3 325 c-2 231 0 338 9 368 30 107 130 212
241 252 50 19 84 19 688 17 l635 -2 61 -28z"/>
</g>
</svg>
