<?xml version="1.0" standalone="no"?>
<!DOCTYPE svg PUBLIC "-//W3C//DTD SVG 20010904//EN"
 "http://www.w3.org/TR/2001/REC-SVG-20010904/DTD/svg10.dtd">
<svg version="1.0" xmlns="http://www.w3.org/2000/svg"
 width="183.000000pt" height="173.000000pt" viewBox="0 0 183.000000 173.000000"
 preserveAspectRatio="xMidYMid meet">
<metadata>
Created by potrace 1.10, written by Peter Selinger 2001-2011
</metadata>
<g transform="translate(0.000000,173.000000) scale(0.100000,-0.100000)"
fill="#000000" stroke="none">
<path d="M842 1237 c-13 -14 -22 -36 -22 -54 0 -24 -5 -32 -22 -37 -36 -9 -97
-64 -120 -109 -17 -33 -23 -68 -29 -158 -7 -125 -28 -189 -84 -264 -44 -57
-33 -65 99 -65 103 0 115 -2 120 -18 13 -41 55 -67 106 -67 51 0 93 26 106 67
5 16 17 18 120 18 132 0 143 8 99 65 -56 75 -77 139 -84 264 -6 90 -12 125
-29 158 -23 45 -84 100 -119 109 -18 5 -23 13 -23 38 0 66 -75 99 -118 53z
m73 -52 c0 -22 -31 -33 -47 -17 -17 17 -1 44 24 40 15 -2 23 -10 23 -23z m47
-79 c39 -17 84 -59 105 -99 9 -18 17 -70 20 -136 5 -112 25 -187 63 -241 l21
-30 -281 0 -281 0 21 30 c38 54 58 129 63 241 6 116 17 148 66 194 56 54 134
69 203 41z m-14 -566 c-2 -8 -16 -19 -31 -24 -32 -12 -80 2 -85 24 -2 12 10
15 58 15 48 0 60 -3 58 -15z"/>
<path d="M606 1127 c-59 -86 -87 -210 -50 -224 20 -8 34 13 34 53 0 45 18 93
57 147 34 48 37 77 10 77 -8 0 -31 -24 -51 -53z"/>
<path d="M1104 1166 c-3 -8 10 -36 29 -63 39 -54 57 -102 57 -147 0 -40 14
-61 34 -53 37 14 9 138 -50 224 -36 53 -60 66 -70 39z"/>
</g>
</svg>
