<?xml version="1.0" standalone="no"?>
<!DOCTYPE svg PUBLIC "-//W3C//DTD SVG 20010904//EN"
 "http://www.w3.org/TR/2001/REC-SVG-20010904/DTD/svg10.dtd">
<svg version="1.0" xmlns="http://www.w3.org/2000/svg"
 width="150.000000pt" height="134.000000pt" viewBox="0 0 150.000000 134.000000"
 preserveAspectRatio="xMidYMid meet">
<metadata>
Created by potrace 1.10, written by Peter Selinger 2001-2011
</metadata>
<g transform="translate(0.000000,134.000000) scale(0.100000,-0.100000)"
fill="#000000" stroke="none">
<path d="M696 1085 c-110 -39 -166 -174 -117 -280 76 -165 306 -165 382 0 77
166 -90 343 -265 280z m150 -51 c51 -24 77 -68 82 -135 5 -69 -18 -115 -74
-150 -75 -46 -190 -15 -230 63 -22 43 -15 134 14 175 42 59 137 81 208 47z"/>
<path d="M613 609 c-104 -40 -184 -149 -187 -253 l-1 -51 345 0 345 0 -1 51
c-3 106 -84 214 -190 253 -76 29 -236 29 -311 0z m312 -50 c60 -28 119 -97
136 -156 7 -27 12 -49 11 -51 -5 -7 -602 -2 -603 5 -2 30 30 100 62 137 61 70
104 85 237 86 94 0 119 -3 157 -21z"/>
</g>
</svg>
