<?xml version="1.0" standalone="no"?>
<!DOCTYPE svg PUBLIC "-//W3C//DTD SVG 20010904//EN"
 "http://www.w3.org/TR/2001/REC-SVG-20010904/DTD/svg10.dtd">
<svg version="1.0" xmlns="http://www.w3.org/2000/svg"
 width="141.000000pt" height="129.000000pt" viewBox="0 0 141.000000 129.000000"
 preserveAspectRatio="xMidYMid meet">
<metadata>
Created by potrace 1.10, written by Peter Selinger 2001-2011
</metadata>
<g transform="translate(0.000000,129.000000) scale(0.100000,-0.100000)"
fill="#000000" stroke="none">
<path d="M617 1022 c-10 -10 -17 -35 -17 -54 0 -30 -4 -37 -27 -43 -19 -4 -34
0 -54 14 -41 31 -70 26 -112 -17 -42 -43 -46 -71 -16 -111 14 -20 18 -35 14
-54 -6 -23 -12 -27 -45 -27 -52 0 -70 -23 -70 -92 0 -65 19 -88 72 -88 30 0
37 -4 43 -27 4 -19 0 -34 -14 -54 -31 -41 -26 -70 17 -112 43 -42 71 -46 111
-16 20 14 35 18 54 14 23 -6 27 -12 27 -45 0 -52 23 -70 92 -70 65 0 88 19 88
72 0 30 4 37 27 43 19 4 34 0 54 -14 41 -31 70 -26 112 17 42 43 46 71 16 111
-14 20 -18 35 -14 54 6 23 12 27 45 27 52 0 70 23 70 92 0 65 -19 88 -72 88
-30 0 -37 4 -43 27 -4 19 0 34 14 54 31 41 26 70 -17 112 -43 42 -71 46 -111
16 -20 -14 -35 -18 -54 -14 -23 6 -27 12 -27 45 0 52 -23 70 -92 70 -40 0 -59
-5 -71 -18z m121 -25 c6 -7 12 -30 14 -51 3 -36 7 -41 44 -54 40 -15 42 -14
78 13 l37 28 36 -36 36 -36 -28 -37 c-27 -36 -28 -38 -13 -78 13 -37 18 -41
54 -44 51 -5 64 -17 64 -62 0 -45 -13 -57 -64 -62 -36 -3 -41 -7 -54 -44 -15
-40 -14 -42 13 -78 l28 -37 -36 -36 -36 -36 -37 28 c-36 27 -38 28 -78 13 -37
-13 -41 -18 -44 -54 -5 -51 -17 -64 -62 -64 -45 0 -57 13 -62 64 -3 36 -7 41
-44 54 -40 15 -42 14 -78 -13 l-37 -28 -36 36 -36 36 28 37 c27 36 28 38 13
78 -13 37 -18 41 -54 44 -51 5 -64 17 -64 62 0 45 13 57 64 62 36 3 41 7 54
44 15 40 14 42 -13 78 l-28 37 36 36 36 36 37 -28 c36 -27 38 -28 78 -13 37
13 41 18 44 54 2 21 8 44 14 51 14 17 82 17 96 0z"/>
<path d="M635 795 c-114 -41 -147 -185 -61 -271 89 -89 243 -48 275 74 35 127
-90 242 -214 197z m146 -64 c35 -35 39 -44 39 -91 0 -47 -4 -56 -39 -91 -35
-35 -44 -39 -91 -39 -47 0 -56 4 -91 39 -35 35 -39 44 -39 91 0 47 4 56 39 91
35 35 44 39 91 39 47 0 56 -4 91 -39z"/>
</g>
</svg>
